<?xml version="1.0" standalone="no"?>
<!DOCTYPE svg PUBLIC "-//W3C//DTD SVG 20010904//EN"
 "http://www.w3.org/TR/2001/REC-SVG-20010904/DTD/svg10.dtd">
<svg version="1.0" xmlns="http://www.w3.org/2000/svg"
 width="256.000000pt" height="256.000000pt" viewBox="0 0 256.000000 256.000000"
 preserveAspectRatio="xMidYMid meet">
<metadata>
Created by potrace 1.11, written by Peter Selinger 2001-2013
</metadata>
<g transform="translate(0.000000,256.000000) scale(0.100000,-0.100000)"
fill="#000000" stroke="none">
<path d="M1160 2415 c-69 -30 -147 -63 -175 -75 -27 -12 -59 -26 -70 -31 -11
-4 -101 -42 -200 -84 -99 -41 -189 -80 -200 -85 -72 -33 -307 -130 -316 -130
-10 0 -8 -55 6 -154 11 -81 24 -187 30 -241 4 -32 8 -67 10 -77 2 -9 6 -41 9
-70 4 -29 8 -70 11 -91 3 -20 7 -59 10 -85 3 -26 12 -99 20 -162 16 -116 20
-146 31 -255 3 -33 6 -61 7 -61 1 -1 34 -25 73 -55 39 -30 83 -63 98 -74 76
-56 679 -510 728 -549 l57 -44 158 119 c87 66 169 129 183 139 14 10 133 100
265 200 132 100 253 191 270 203 75 56 84 69 89 132 2 33 7 78 10 100 13 86
35 263 41 316 3 31 7 65 9 75 2 11 7 48 11 84 4 36 9 74 11 85 2 10 6 49 10
85 3 36 8 72 9 81 3 17 15 107 20 149 2 14 6 52 10 85 l6 60 -143 59 c-79 33
-161 67 -183 76 -52 23 -414 176 -485 205 -30 12 -109 46 -175 74 -65 28 -119
51 -120 50 0 0 -56 -25 -125 -54z"/>
</g>
</svg>
